<?xml version="1.0" encoding="utf-8"?>
<!-- Generator: Adobe Illustrator 18.1.1, SVG Export Plug-In . SVG Version: 6.00 Build 0)  -->
<svg version="1.1" id="Layer_1" xmlns="http://www.w3.org/2000/svg" xmlns:xlink="http://www.w3.org/1999/xlink" x="0px" y="0px"
	 viewBox="0 0 50 50" style="enable-background:new 0 0 50 50;" xml:space="preserve">
<path style="fill:#8A8A8A;" d="M47.5,2.7C45.7,0.9,43.5,0,40.9,0H9.4C6.8,0,4.6,0.9,2.8,2.7S0,6.8,0,10.1v31.3c0,1.8,0.9,4,2.8,5.8
	S6.8,50,9.4,50h7.3c0.5,0,0.8,0,1.1,0c0.3,0,0.5-0.2,0.7-0.5c0.3-0.3,0.4-0.6,0.4-1.1c0-0.1,0-0.8,0-2.2s0-2.5,0-3.4l-0.7,0.1
	C17.7,43,17.1,43,16.3,43c-0.7,0-1.5-0.1-2.3-0.3c-0.8-0.2-1.6-0.5-2.2-0.9c-0.6-0.6-1.2-1.2-1.5-2l-0.3-0.7c-0.2-0.5-0.6-1-1-1.7
	c-0.5-0.6-0.9-1-1.4-1.3L7.4,36c-0.2-0.1-0.3-0.3-0.5-0.4c-0.2-0.2-0.3-0.3-0.3-0.5s0-0.3,0.2-0.4c0.2-0.1,0.5-0.2,0.9-0.2l0.6,0.1
	c0.5,0.1,0.9,0.4,1.6,0.8s1.2,1,1.6,1.7c0.5,0.9,1.1,1.6,1.8,2c0.7,0.5,1.4,0.7,2.1,0.7s1.3,0,1.8-0.2c0.6-0.1,1-0.3,1.5-0.5
	c0.2-1.5,0.7-2.6,1.6-3.4c-1.3-0.1-2.4-0.3-3.4-0.6c-1-0.3-2-0.6-3.1-1.3c-1-0.6-1.9-1.3-2.7-2.2c-0.6-0.9-1.3-2-1.8-3.4
	c-0.5-1.4-0.6-3-0.6-4.9c0-2.7,0.8-4.9,2.6-6.7c-0.8-1.9-0.7-4.2,0.3-6.6c0.6-0.2,1.6,0,2.8,0.5c1.3,0.5,2.2,0.9,2.8,1.3
	c0.6,0.4,1,0.6,1.4,0.9c2-0.6,4.2-0.8,6.3-0.8s4.2,0.3,6.3,0.8l1.3-0.8c0.8-0.6,1.8-1,3-1.5c1.2-0.5,2-0.6,2.7-0.4
	c0.9,2.5,1.1,4.7,0.3,6.6c1.8,1.8,2.6,4,2.6,6.7c0,1.8-0.3,3.5-0.6,5c-0.5,1.5-1,2.6-1.8,3.4c-0.7,0.8-1.6,1.6-2.7,2.2
	c-1,0.6-2.1,1-3.1,1.3s-2.1,0.5-3.4,0.6c1.1,0.9,1.7,2.5,1.7,4.7v7.8c0,0.4,0,0.6,0.2,0.9c0.1,0.3,0.3,0.4,0.6,0.5
	c0.3,0.1,0.5,0.2,0.6,0.2s0.5,0,0.8,0h7.3c2.6,0,4.8-0.9,6.6-2.8s2.8-4,2.8-6.6V9.4C50.3,6.8,49.4,4.6,47.5,2.7z"/>
</svg>
